<svg xmlns="http://www.w3.org/2000/svg" xmlns:ns1="http://sodipodi.sourceforge.net/DTD/sodipodi-0.dtd" xmlns:ns2="http://www.inkscape.org/namespaces/inkscape" id="svg2" viewBox="0 0 1600 900" version="1.1"><ns1:namedview pagecolor="#303030" showgrid="true"><ns2:grid id="grid5" units="px" spacingx="100" spacingy="100" color="#4772b3" opacity="0.2" visible="true" /></ns1:namedview>
  <defs id="defs1" />
  <g id="g1">
    <path id="path2" d="m184.49609 623.99414a.50005.50005 0 0 0 -.34961.85938l2.14649 2.14648h-10.58594l2.14649-2.14648a.50005.50005 0 1 0 -.70704-.70704l-3 3a.50005.50005 0 0 0 0 .70704l3 3a.50005.50005 0 1 0 .70704-.70704l-2.14649-2.14648h10.58594l-2.14649 2.14648a.50005.50005 0 1 0 .70704.70704l3-3a.50005.50005 0 0 0 0-.70704l-3-3a.50005.50005 0 0 0 -.35743-.15234z" transform="matrix(100 0 0 100 -17300 -62300)" fill="currentColor" />
  </g>
</svg>