<svg xmlns="http://www.w3.org/2000/svg" xmlns:ns1="http://sodipodi.sourceforge.net/DTD/sodipodi-0.dtd" xmlns:ns2="http://www.inkscape.org/namespaces/inkscape" viewBox="0 0 1600 1600"><ns1:namedview pagecolor="#303030" showgrid="true"><ns2:grid id="grid5" units="px" spacingx="100" spacingy="100" color="#4772b3" opacity="0.2" visible="true" /></ns1:namedview><g fill="currentColor"><g enable-background="new" opacity=".6" transform="matrix(100 0 0 100 -36200 -15700)"><path d="m369.99998 160.99999c-2.20236 0-4 1.79764-4 4 0 2.20237 1.79764 4 4 4 2.20237 0 4-1.79763 4-4 0-2.20236-1.79763-4-4-4z" opacity="1" /><path d="m363.5 158a.50005.50005 0 0 0 -.5.5v13a.50005.50005 0 0 0 .5.5h13a.50005.50005 0 0 0 .5-.5v-13a.50005.50005 0 0 0 -.5-.5zm.5 1h12v12h-12z" opacity=".3" /></g></g></svg>