<svg xmlns="http://www.w3.org/2000/svg" xmlns:ns1="http://sodipodi.sourceforge.net/DTD/sodipodi-0.dtd" xmlns:ns2="http://www.inkscape.org/namespaces/inkscape" viewBox="0 0 1600 1600"><ns1:namedview pagecolor="#303030" showgrid="true"><ns2:grid id="grid5" units="px" spacingx="100" spacingy="100" color="#4772b3" opacity="0.2" visible="true" /></ns1:namedview><g fill="currentColor"><g enable-background="new"><path d="m50.492188 287.99219a.50005.50005 0 0 0 -.388672.19531.50005.50005 0 0 0 -.0039.006l-1.953125 1.95312a.50005.50005 0 1 0 .707032.70704l1.146477-1.14663v5.79297a.50005.50005 0 0 0 .5.5h5.792969l-1.146485 1.14648a.50005.50005 0 1 0 .707032.70704l1.957031-1.95704a.50005.50005 0 0 0 .002-.79296.50005.50005 0 0 0 -.0059-.004l-1.953125-1.95313a.50005.50005 0 1 0 -.707032.70704l1.146479 1.14657h-5.292969v-5.29297l1.146484 1.14649a.50005.50005 0 1 0 .707032-.70704l-1.957032-1.95703a.50005.50005 0 0 0 -.404296-.19726z" opacity=".7" transform="matrix(100 0 0 100 -4299.9882 -28699.964)" /><path d="m50.492188 287.99219a.50005.50005 0 0 0 -.388672.19531.50005.50005 0 0 0 -.0039.006l-1.953125 1.95312a.50005.50005 0 1 0 .707032.70704l1.146477-1.14663v5.79297a.50005.50005 0 0 0 .5.5h5.792969l-1.146485 1.14648a.50005.50005 0 1 0 .707032.70704l1.957031-1.95704a.50005.50005 0 0 0 .002-.79296.50005.50005 0 0 0 -.0059-.004l-1.953125-1.95313a.50005.50005 0 1 0 -.707032.70704l1.146479 1.14657h-5.292969v-5.29297l1.146484 1.14649a.50005.50005 0 1 0 .707032-.70704l-1.957032-1.95703a.50005.50005 0 0 0 -.404296-.19726z" transform="matrix(100 0 0 100 -4699.9882 -28299.964)" /></g></g></svg>