<svg xmlns="http://www.w3.org/2000/svg" xmlns:ns1="http://sodipodi.sourceforge.net/DTD/sodipodi-0.dtd" xmlns:ns2="http://www.inkscape.org/namespaces/inkscape" viewBox="0 0 1600 1600"><ns1:namedview pagecolor="#303030" showgrid="true"><ns2:grid id="grid5" units="px" spacingx="100" spacingy="100" color="#4772b3" opacity="0.2" visible="true" /></ns1:namedview><g fill="currentColor"><g enable-background="new" transform="matrix(100 0 0 100 -21500 29000.00000000001)"><path d="m216.5-282a.50005.50005 0 0 0 -.5.5v6a.50005.50005 0 0 0 .5.5h7a.50005.50005 0 0 0 .5-.5v-6a.50005.50005 0 0 0 -.5-.5zm.5 1h6v5h-6z" opacity=".7" /><path d="m226.5-289a.50005.50005 0 0 0 -.5.5v13a.50005.50005 0 0 0 .5.5h3a.50005.50005 0 0 0 .5-.5v-13a.50005.50005 0 0 0 -.5-.5zm.5 1h2v12h-2z" /></g></g></svg>