<svg xmlns="http://www.w3.org/2000/svg" xmlns:ns1="http://sodipodi.sourceforge.net/DTD/sodipodi-0.dtd" xmlns:ns2="http://www.inkscape.org/namespaces/inkscape" viewBox="0 0 1600 1600"><ns1:namedview pagecolor="#303030" showgrid="true"><ns2:grid id="grid5" units="px" spacingx="100" spacingy="100" color="#4772b3" opacity="0.2" visible="true" /></ns1:namedview><g fill="currentColor"><g enable-background="new" opacity=".8" transform="matrix(100 0 0 100 -23599.999 33200.00000000001)"><path d="m237.5-323c-.27613.00003-.49997.22387-.5.5v4c.00003.27613.22387.49997.5.5h4c.27613-.00003.49997-.22387.5-.5v-4c-.00003-.27613-.22387-.49997-.5-.5z" opacity="1" /><path d="m237.52148-329a.50005.50005 0 0 0 -.5.49805l-.0215 4.5 1 .004.0195-4.00195h8.98052v9h-4v1h4.5a.50005.50005 0 0 0 .5-.5v-10a.50005.50005 0 0 0 -.5-.5z" opacity=".8" /><path d="m251-326v-2h-1v2zm0-3v-2h-1v2zm0 12v-2h-1v2zm0-3v-2h-1v2zm0-3v-2h-1v2z" /></g></g></svg>