<svg xmlns="http://www.w3.org/2000/svg" xmlns:ns1="http://sodipodi.sourceforge.net/DTD/sodipodi-0.dtd" xmlns:ns2="http://www.inkscape.org/namespaces/inkscape" viewBox="0 0 1600 1600"><ns1:namedview pagecolor="#303030" showgrid="true"><ns2:grid id="grid5" units="px" spacingx="100" spacingy="100" color="#4772b3" opacity="0.2" visible="true" /></ns1:namedview><g fill="currentColor"><g enable-background="new" transform="matrix(100 0 0 100 -19400.018 -28300)"><path d="m197.50977 285.99609a.50005.50005 0 0 0 -.31055.10547c-1.78384 1.33863-2.5833 3.62488-2.02149 5.78321s2.37387 3.7674 4.58399 4.0664c2.05389.27788 4.06729-.6352 5.23828-2.31445v2.86328a.50005.50005 0 1 0 1 0v-4a.50005.50005 0 0 0 -.5-.5h-4a.50005.50005 0 1 0 0 1h2.72656c-.95112 1.41787-2.62038 2.19029-4.33008 1.95898-1.8109-.24499-3.29162-1.5577-3.75195-3.32617s.19267-3.63559 1.6543-4.73242a.50005.50005 0 0 0 -.28906-.9043z" opacity=".8" /><path d="m209 289v-2h-1v2zm0-3v-2h-1v2zm0 12v-2h-1v2zm0-3v-2h-1v2zm0-3v-2h-1v2z" /></g></g></svg>