<svg xmlns="http://www.w3.org/2000/svg" xmlns:ns1="http://sodipodi.sourceforge.net/DTD/sodipodi-0.dtd" xmlns:ns2="http://www.inkscape.org/namespaces/inkscape" viewBox="0 0 1600 1600"><ns1:namedview pagecolor="#303030" showgrid="true"><ns2:grid id="grid5" units="px" spacingx="100" spacingy="100" color="#4772b3" opacity="0.2" visible="true" /></ns1:namedview><g fill="currentColor"><path d="m178.49219 368a.50005.50005 0 0 0 -.34571.14648l-2 2a.50005.50005 0 1 0 .70704.70704l1.14648-1.14649v7.58594l-3 3v-1.79297a.50005.50005 0 0 0 -.50781-.50781.50005.50005 0 0 0 -.49219.50781v3a.50005.50005 0 0 0 .5.5h3a.50005.50005 0 1 0 0-1h-1.79297l3-3h7.58594l-1.14649 1.14648a.50005.50005 0 1 0 .70704.70704l2-2a.50005.50005 0 0 0 0-.70704l-2-2a.50005.50005 0 0 0 -.35938-.15234.50005.50005 0 0 0 -.34766.85938l1.14649 1.14648h-7.29297v-7.29297l1.14648 1.14649a.50005.50005 0 1 0 .70704-.70704l-2-2a.50005.50005 0 0 0 -.36133-.14648z" transform="matrix(100 0 0 100 -17299.9926 -36699.9996)" /></g></svg>