<svg xmlns="http://www.w3.org/2000/svg" xmlns:ns1="http://sodipodi.sourceforge.net/DTD/sodipodi-0.dtd" xmlns:ns2="http://www.inkscape.org/namespaces/inkscape" viewBox="0 0 1600 1600"><ns1:namedview pagecolor="#303030" showgrid="true"><ns2:grid id="grid5" units="px" spacingx="100" spacingy="100" color="#4772b3" opacity="0.2" visible="true" /></ns1:namedview><g fill="currentColor"><g enable-background="new" transform="matrix(100 0 0 100 -44600.356 -59800.356)"><path d="m447.5 599a.50005.50005 0 0 0 -.5.5v10a.50005.50005 0 0 0 .5.5h13a.50005.50005 0 1 0 0-1h-12.5v-9h9v7.5a.50005.50005 0 1 0 1 0v-8a.50005.50005 0 0 0 -.5-.5zm9.99219 11.74219a.50005.50005 0 0 0 -.49219.50781v1.25a.50005.50005 0 1 0 1 0v-1.25a.50005.50005 0 0 0 -.50781-.50781z" /><path d="m455.5 602c-.58333 0-1.08834.16632-1.52734.45898-.43901.29267-.82618.6875-1.32618 1.1875l-1 1c-.5.5-.86283.85517-1.17382 1.0625-.311.20734-.55599.29102-.97266.29102h-1v1h1c.58333 0 1.08834-.16632 1.52734-.45898.43901-.29267.82618-.6875 1.32618-1.1875l1-1c.5-.5.86283-.85517 1.17382-1.0625.311-.20734.55599-.29102.97266-.29102h1v-1z" opacity=".65" /></g></g></svg>