<svg xmlns="http://www.w3.org/2000/svg" xmlns:ns1="http://sodipodi.sourceforge.net/DTD/sodipodi-0.dtd" xmlns:ns2="http://www.inkscape.org/namespaces/inkscape" viewBox="0 0 1600 1500"><ns1:namedview pagecolor="#303030" showgrid="true"><ns2:grid id="grid5" units="px" spacingx="100" spacingy="100" color="#4772b3" opacity="0.2" visible="true" /></ns1:namedview><g fill="currentColor"><g enable-background="new" transform="matrix(100 0 0 100 -36200 -9400)"><path d="m363.5 95c-.27613.00003-.49997.22387-.5.5v3.5h14v-1.5c-.00003-.27613-.22387-.49997-.5-.5h-8.5v-1.5c-.00003-.27613-.22387-.49997-.5-.5z" /><path d="m363.5 100c-.27613.00003-.49997.22387-.5.5v7c.00003.27613.22387.49997.5.5h13c.27613-.00003.49997-.22387.5-.5v-7c-.00003-.27613-.22387-.49997-.5-.5z" /></g></g></svg>