<svg xmlns="http://www.w3.org/2000/svg" xmlns:ns1="http://sodipodi.sourceforge.net/DTD/sodipodi-0.dtd" xmlns:ns2="http://www.inkscape.org/namespaces/inkscape" viewBox="0 0 1600 1600"><ns1:namedview pagecolor="#303030" showgrid="true"><ns2:grid id="grid5" units="px" spacingx="100" spacingy="100" color="#4772b3" opacity="0.2" visible="true" /></ns1:namedview><g fill="currentColor"><g enable-background="new" transform="matrix(100 0 0 100 -25299.957 -68699.98)"><path d="m264.5 688c-1.933 0-3.5 1.567-3.5 3.5s1.567 3.5 3.5 3.5 3.5-1.567 3.5-3.5-1.567-3.5-3.5-3.5zm-.5 1h1v2h2v1h-2v2h-1v-2h-2v-1h2z" /><path d="m366.48438 579c-.12718.004-.248.0564-.3379.14648l-3 3c-.31479.315-.0918.85335.35352.85352h3c.27613-.00003.49997-.22387.5-.5v-2.5h1.5c.67616.01.67616-1.00956 0-1h-2v.002c-.005 0-.0101-.002-.0156-.002zm-3.48438 5v7.5c.00003.27613.22387.49997.5.5h10c.27613-.00003.49997-.22387.5-.5v-5c.01-.67616-1.00956-.67616-1 0v4.5h-9v-7z" fill-rule="evenodd" opacity=".6" transform="translate(-109 109.9996)" /></g></g></svg>