<svg xmlns="http://www.w3.org/2000/svg" xmlns:ns1="http://sodipodi.sourceforge.net/DTD/sodipodi-0.dtd" xmlns:ns2="http://www.inkscape.org/namespaces/inkscape" viewBox="0 0 1800 1800" version="1.1" id="svg1" ns1:docname="key_empty1_filled.svg" ns2:version="1.3.2 (091e20e, 2023-11-25, custom)">
  <defs id="defs1" />
  <ns1:namedview pagecolor="#303030" showgrid="true" id="namedview1" bordercolor="#000000" borderopacity="0.25" ns2:showpageshadow="2" ns2:pageopacity="0.0" ns2:pagecheckerboard="0" ns2:deskcolor="#d1d1d1" ns2:zoom="0.25000001" ns2:cx="195.99999" ns2:cy="921.99998" ns2:window-width="1920" ns2:window-height="1009" ns2:window-x="1912" ns2:window-y="-8" ns2:window-maximized="1" ns2:current-layer="svg1">
    <ns2:grid id="grid5" units="px" spacingx="100" spacingy="100" color="#4772b3" opacity="0.2" visible="true" originx="0" originy="0" />
  </ns1:namedview>
  <g id="g1" fill="currentColor">
    <path d="m 31.484375,450.99731 c -1.92123,0 -3.483002,1.56042 -3.483002,3.48165 v 9.03666 c 0,1.92123 1.561772,3.48168 3.483002,3.48168 h 9.095609 c 1.92123,0 3.485856,-1.56045 3.485856,-3.48168 v -9.03666 c 0,-1.92123 -1.564626,-3.48165 -3.485856,-3.48165 z m 0,1.00001 h 9.095609 c 1.38453,0 2.481865,1.09711 2.481865,2.48164 v 9.03666 c 0,1.38453 -1.097335,2.48168 -2.481865,2.48168 h -9.095609 c -1.38453,0 -2.479002,-1.09715 -2.479002,-2.48168 v -9.03666 c 0,-1.38453 1.094472,-2.48164 2.479002,-2.48164 z" transform="matrix(99.598235,0,0,100,-2688.8846,-44999.729)" id="path1" ns1:nodetypes="ssssssssssssssssss" />
  </g>
  <path d="M 446.56449,199.33367 H 1353.615 c 138.0708,0 247.5015,109.84954 247.5015,248.47736 v 904.80707 c 0,138.6278 -109.4307,248.4814 -247.5015,248.4814 H 446.56449 c -138.07092,0 -247.21597,-109.8536 -247.21597,-248.4814 V 447.81103 c 0,-138.62782 109.14505,-248.47736 247.21597,-248.47736 z" id="path1-8" style="fill:#ffffff;stroke-width:1.00126;fill-opacity:0.80000001" />
</svg>