<svg xmlns="http://www.w3.org/2000/svg" xmlns:ns1="http://sodipodi.sourceforge.net/DTD/sodipodi-0.dtd" xmlns:ns2="http://www.inkscape.org/namespaces/inkscape" viewBox="0 0 1400 1600"><ns1:namedview pagecolor="#303030" showgrid="true"><ns2:grid id="grid5" units="px" spacingx="100" spacingy="100" color="#4772b3" opacity="0.2" visible="true" /></ns1:namedview><g fill="currentColor"><path d="m553.5 620a.50005.50005 0 1 0 0 1h10.99219a.50005.50005 0 1 0 0-1zm0 2a.50005.50005 0 1 0 0 1h10.99219a.50005.50005 0 1 0 0-1zm0 2a.50005.50005 0 1 0 0 1h10.99219a.50005.50005 0 1 0 0-1zm0 5a.50005.50005 0 1 0 0 1h10.99219a.50005.50005 0 1 0 0-1zm0 2a.50005.50005 0 1 0 0 1h10.99219a.50005.50005 0 1 0 0-1zm0 2a.50005.50005 0 1 0 0 1h11a.50005.50005 0 1 0 0-1z" transform="matrix(100 0 0 100 -55199.99999999999 -61900)" /></g></svg>