<svg xmlns="http://www.w3.org/2000/svg" xmlns:ns1="http://sodipodi.sourceforge.net/DTD/sodipodi-0.dtd" xmlns:ns2="http://www.inkscape.org/namespaces/inkscape" viewBox="0 0 1600 1600"><ns1:namedview pagecolor="#303030" showgrid="true"><ns2:grid id="grid5" units="px" spacingx="100" spacingy="100" color="#4772b3" opacity="0.2" visible="true" /></ns1:namedview><g fill="currentColor"><path d="m429.50781 389c-1.93498 0-3.50781 1.57283-3.50781 3.50781v6.98438c0 1.93498 1.57283 3.50781 3.50781 3.50781h6.98438c1.93498 0 3.50781-1.57283 3.50781-3.50781v-6.98438c0-1.93498-1.57283-3.50781-3.50781-3.50781zm0 1h6.98438c1.39828 0 2.50781 1.10953 2.50781 2.50781v6.98438c0 1.39828-1.10953 2.50781-2.50781 2.50781h-6.98438c-1.39828 0-2.50781-1.10953-2.50781-2.50781v-6.98438c0-1.39828 1.10953-2.50781 2.50781-2.50781z" transform="matrix(100 0 0 100 -42500 -38800)" /></g></svg>