<svg xmlns="http://www.w3.org/2000/svg" xmlns:ns1="http://sodipodi.sourceforge.net/DTD/sodipodi-0.dtd" xmlns:ns2="http://www.inkscape.org/namespaces/inkscape" viewBox="0 0 1600 1600"><ns1:namedview pagecolor="#303030" showgrid="true"><ns2:grid id="grid5" units="px" spacingx="100" spacingy="100" color="#4772b3" opacity="0.2" visible="true" /></ns1:namedview><g fill="currentColor"><g enable-background="new" transform="matrix(100 0 0 100 -19399.6 -28300.388)"><path d="m203.5 284a.50005.50005 0 0 0 -.35352.14648l-8 8a.50005.50005 0 0 0 -.14648.35352l-.008 5.00586a.50005.50005 0 0 0 .5.50195l13.008-.00781a.50005.50005 0 0 0 .5-.5v-13a.50005.50005 0 0 0 -.5-.5zm.20703 1h4.29297v12l-12.00781.008.008-4.30078z" fill-rule="evenodd" /><path d="m200.5 284-5.00781.008a.50005.50005 0 0 0 -.5.5v5a.50005.50005 0 1 0 1 0v-4.50195l4.50781-.00605a.50005.50005 0 1 0 0-1z" opacity=".5" /></g></g></svg>