<svg xmlns="http://www.w3.org/2000/svg" xmlns:ns1="http://sodipodi.sourceforge.net/DTD/sodipodi-0.dtd" xmlns:ns2="http://www.inkscape.org/namespaces/inkscape" viewBox="0 0 1600 1600"><ns1:namedview pagecolor="#303030" showgrid="true"><ns2:grid id="grid5" units="px" spacingx="100" spacingy="100" color="#4772b3" opacity="0.2" visible="true" /></ns1:namedview><g fill="currentColor"><g enable-background="new" transform="matrix(-100 0 0 100 31499.613 -28300.693)"><path d="m310.5 287-10.00781.008a.50005.50005 0 0 0 -.5.5v10a.50005.50005 0 0 0 .5.5h10a.50005.50005 0 0 0 .5-.5l.00781-10.008a.50005.50005 0 0 0 -.5-.5zm-.5 1-.008 9.00781h-9v-9.00195z" opacity=".5" /><path d="m300.5 284a.50005.50005 0 1 0 0 1h10a.50005.50005 0 1 0 0-1zm12.99219 2.99219a.50005.50005 0 0 0 -.49219.50781l-.008 10.00586a.50005.50005 0 1 0 1 .002l.008-10.00786a.50005.50005 0 0 0 -.50781-.50781z" /></g></g></svg>