<svg xmlns="http://www.w3.org/2000/svg" xmlns:ns1="http://sodipodi.sourceforge.net/DTD/sodipodi-0.dtd" xmlns:ns2="http://www.inkscape.org/namespaces/inkscape" viewBox="0 0 1600 1600"><ns1:namedview pagecolor="#303030" showgrid="true"><ns2:grid id="grid5" units="px" spacingx="100" spacingy="100" color="#4772b3" opacity="0.2" visible="true" /></ns1:namedview><g fill="currentColor"><g enable-background="new" transform="matrix(100 0 0 100 -2600 -34600)"><path d="m27.5 347a.50005.50005 0 0 0 -.5.5v3.5h1v-3h3v-1zm9.5 0v1h3v3h1v-3.5a.50005.50005 0 0 0 -.5-.5zm-10 10v3.5a.50005.50005 0 0 0 .5.5h3.5v-1h-3v-3zm13 0v3h-3v1h3.5a.50005.50005 0 0 0 .5-.5v-3.5z" opacity=".6" /><path d="m30.5 350c-.276131.00003-.499972.22387-.5.5v7c.000028.27613.223869.49997.5.5h7c.276131-.00003.499972-.22387.5-.5v-7c-.000028-.27613-.223869-.49997-.5-.5z" /></g></g></svg>