<svg xmlns="http://www.w3.org/2000/svg" xmlns:ns1="http://sodipodi.sourceforge.net/DTD/sodipodi-0.dtd" xmlns:ns2="http://www.inkscape.org/namespaces/inkscape" viewBox="0 0 1600 1500"><ns1:namedview pagecolor="#303030" showgrid="true"><ns2:grid id="grid5" units="px" spacingx="100" spacingy="100" color="#4772b3" opacity="0.2" visible="true" /></ns1:namedview><g fill="currentColor"><path d="m1456 538v7.5c0 .27613.2239.49997.5.5h11c.2761-.00003.5-.22387.5-.5v-7.5zm5 1h2a1.0001 1.0001 0 1 1 0 2h-2a1.0001 1.0001 0 1 1 0-2zm-5.5-6c-.2761.00003-.5.22387-.5.5v3c0 .27613.2239.49997.5.5h13c.2761-.00003.5-.22387.5-.5v-3c0-.27613-.2239-.49997-.5-.5z" transform="matrix(100 0 0 100 -145400.005 -53200)" /></g></svg>