<svg xmlns="http://www.w3.org/2000/svg" xmlns:ns1="http://sodipodi.sourceforge.net/DTD/sodipodi-0.dtd" xmlns:ns2="http://www.inkscape.org/namespaces/inkscape" viewBox="0 0 1500 1300"><ns1:namedview pagecolor="#303030" showgrid="true"><ns2:grid id="grid5" units="px" spacingx="100" spacingy="100" color="#4772b3" opacity="0.2" visible="true" /></ns1:namedview><g fill="currentColor"><path d="m494.5 432a.50005.50005 0 0 0 -.35352.14648l-1.85351 1.85352h-2.79297a.50005.50005 0 0 0 -.5.5v8a.50005.50005 0 0 0 .5.5h12a.50005.50005 0 0 0 .5-.5v-8a.50005.50005 0 0 0 -.5-.5h-1.79297l-1.85351-1.85352a.50005.50005 0 0 0 -.35352-.14648zm.20703 1h2.58594l1.85351 1.85352a.50005.50005 0 0 0 .35352.14648h1.5v7h-11v-7h2.5a.50005.50005 0 0 0 .35352-.14648zm-.46094 2.74414a.50005.50005 0 0 0 -.34961.85938l1.39649 1.39648-1.39649 1.39648a.50005.50005 0 1 0 .70704.70704l1.39648-1.39649 1.39648 1.39649a.50005.50005 0 1 0 .70704-.70704l-1.39649-1.39648 1.39649-1.39648a.50005.50005 0 1 0 -.70704-.70704l-1.39648 1.39649-1.39648-1.39649a.50005.50005 0 0 0 -.35743-.15234z" opacity=".6" transform="matrix(100 0 0 100 -48799.99999999999 -43100)" /></g></svg>