<svg xmlns="http://www.w3.org/2000/svg" xmlns:ns1="http://sodipodi.sourceforge.net/DTD/sodipodi-0.dtd" xmlns:ns2="http://www.inkscape.org/namespaces/inkscape" viewBox="0 0 1500 1200"><ns1:namedview pagecolor="#303030" showgrid="true"><ns2:grid id="grid5" units="px" spacingx="100" spacingy="100" color="#4772b3" opacity="0.2" visible="true" /></ns1:namedview><g fill="currentColor"><path d="m327.48047 181a.50005.50005 0 0 0 -.46875.39453c-.73399 3.42527-2.46804 7.48775-5.67969 8.63477a.50005.50005 0 1 0 .33594.9414c3.19373-1.14062 4.90029-4.45895 5.83203-7.61914.93174 3.16019 2.6383 6.47852 5.83203 7.61914a.50005.50005 0 1 0 .33594-.9414c-3.21165-1.14702-4.9457-5.2095-5.67969-8.63477a.50005.50005 0 0 0 -.50781-.39453z" transform="matrix(100 0 0 100 -32000 -18000.265)" /></g></svg>