<svg xmlns="http://www.w3.org/2000/svg" xmlns:ns1="http://sodipodi.sourceforge.net/DTD/sodipodi-0.dtd" xmlns:ns2="http://www.inkscape.org/namespaces/inkscape" viewBox="0 0 1400 1600"><ns1:namedview pagecolor="#303030" showgrid="true"><ns2:grid id="grid5" units="px" spacingx="100" spacingy="100" color="#4772b3" opacity="0.2" visible="true" /></ns1:namedview><g fill="currentColor"><path d="m1085.5 1514c-.2761 0-.5.2239-.5.5v13c0 .2761.2239.5.5.5h.5v-2h1v2h9.5c.2761 0 .5-.2239.5-.5v-13c0-.2761-.2239-.5-.5-.5h-9.5v2h-1v-2zm3.5 2h6v1h-6zm-3 1h1v2h-1zm3 1h6v1h-6zm-3 2h1v2h-1zm3 0h6v1h-6zm0 2h4v1h-4zm-3 1h1v2h-1z" transform="matrix(100 0 0 100 -108400.005 -151300)" /></g></svg>