<svg xmlns="http://www.w3.org/2000/svg" xmlns:ns1="http://sodipodi.sourceforge.net/DTD/sodipodi-0.dtd" xmlns:ns2="http://www.inkscape.org/namespaces/inkscape" viewBox="0 0 1600 1500"><ns1:namedview pagecolor="#303030" showgrid="true"><ns2:grid id="grid5" units="px" spacingx="100" spacingy="100" color="#4772b3" opacity="0.2" visible="true" /></ns1:namedview><g fill="currentColor"><path d="m48.492188 306a.50005.50005 0 1 0 0 1h12.99414a.50005.50005 0 1 0 0-1zm7 3a.50005.50005 0 1 0 0 1h5.99414a.50005.50005 0 1 0 0-1zm-7 3a.50005.50005 0 1 0 0 1h12.99414a.50005.50005 0 1 0 0-1zm7 3a.50005.50005 0 1 0 0 1h5.99414a.50005.50005 0 1 0 0-1zm-7 3a.50005.50005 0 1 0 0 1h12.99414a.50005.50005 0 1 0 0-1z" transform="matrix(100 0 0 100 -4698.9258 -30500)" /></g></svg>