<svg xmlns="http://www.w3.org/2000/svg" xmlns:ns1="http://sodipodi.sourceforge.net/DTD/sodipodi-0.dtd" xmlns:ns2="http://www.inkscape.org/namespaces/inkscape" viewBox="0 0 1600 1600"><ns1:namedview pagecolor="#303030" showgrid="true"><ns2:grid id="grid5" units="px" spacingx="100" spacingy="100" color="#4772b3" opacity="0.2" visible="true" /></ns1:namedview><g fill="currentColor"><g enable-background="new" transform="matrix(100 0 0 100 -15200 -30400)"><path d="m155.49219 314a.50005.50005 0 1 0 0 1h8.99414a.50005.50005 0 1 0 0-1zm0 2a.50005.50005 0 1 0 0 1h8.99414a.50005.50005 0 1 0 0-1z" /><path d="m153.5 305a.50004997.50004997 0 0 0 -.5.5v13a.50004997.50004997 0 0 0 .5.5h13a.50004997.50004997 0 0 0 .5-.5v-13a.50004997.50004997 0 0 0 -.5-.5zm.5 1h12v12h-12z" opacity=".6" /></g></g></svg>