<svg xmlns="http://www.w3.org/2000/svg" xmlns:ns1="http://sodipodi.sourceforge.net/DTD/sodipodi-0.dtd" xmlns:ns2="http://www.inkscape.org/namespaces/inkscape" id="svg2" viewBox="0 0 1600 1200"><ns1:namedview pagecolor="#303030" showgrid="true"><ns2:grid id="grid5" units="px" spacingx="100" spacingy="100" color="#4772b3" opacity="0.2" visible="true" /></ns1:namedview><g fill="currentColor"><path id="path1" d="m-406.5 1608c-.67616-.01-.67616 1.0096 0 1h11.99219c.67616.01.67616-1.0096 0-1zm3.93164 3c.18417.3108.32709.6451.42188 1h7.63867c.67616.01.67616-1.0096 0-1zm.42188 3c-.0948.3549-.23771.6892-.42188 1h8.06055c.67616.01.67616-1.0096 0-1zm-4.35352 3c-.67616-.01-.67616 1.0096 0 1h11.99219c.67616.01.67616-1.0096 0-1z" opacity=".7" transform="matrix(-100 0 0 100 -39300.03500000001 -160700)" /><path id="circle1" d="m-404.5-1613.0002a1.5 1.5 0 0 1 -1.5 1.5 1.5 1.5 0 0 1 -1.5-1.5 1.5 1.5 0 0 1 1.5-1.5 1.5 1.5 0 0 1 1.5 1.5z" stroke="#fff" stroke-linecap="round" stroke-linejoin="round" transform="matrix(-100 0 0 -100 -39300.03500000001 -160700)" /></g></svg>