<svg xmlns="http://www.w3.org/2000/svg" xmlns:ns1="http://sodipodi.sourceforge.net/DTD/sodipodi-0.dtd" xmlns:ns2="http://www.inkscape.org/namespaces/inkscape" viewBox="0 0 1600 1600"><ns1:namedview pagecolor="#303030" showgrid="true"><ns2:grid id="grid5" units="px" spacingx="100" spacingy="100" color="#4772b3" opacity="0.2" visible="true" /></ns1:namedview><g fill="currentColor"><path d="m342.5 158c-.27613.00003-.49997.22387-.5.5v13c.00003.27613.22387.49997.5.5h13c.27613-.00003.49997-.22387.5-.5v-13c-.00003-.27613-.22387-.49997-.5-.5zm6.5 3c2.20237 0 4 1.79764 4 4 0 2.20237-1.79763 4-4 4-2.20236 0-4-1.79763-4-4 0-2.20236 1.79764-4 4-4z" transform="matrix(100 0 0 100 -34100 -15700)" /></g></svg>