<svg xmlns="http://www.w3.org/2000/svg" xmlns:ns1="http://sodipodi.sourceforge.net/DTD/sodipodi-0.dtd" xmlns:ns2="http://www.inkscape.org/namespaces/inkscape" viewBox="0 0 1600 1600"><ns1:namedview pagecolor="#303030" showgrid="true"><ns2:grid id="grid5" units="px" spacingx="100" spacingy="100" color="#4772b3" opacity="0.2" visible="true" /></ns1:namedview><g fill="currentColor"><g enable-background="new" transform="matrix(100 0 0 100 -27799.844 -36700.15110000001)"><path d="m292.49023 367.99609a.50005.50005 0 0 0 -.34375.15039l-10 10a.50005.50005 0 1 0 .70704.70704l10-10a.50005.50005 0 0 0 -.36329-.85743z" /><path d="m289.5 368a.50005.50005 0 1 0 0 1h2.5v2.5a.50005.50005 0 1 0 1 0v-3a.50005.50005 0 0 0 -.5-.5zm-5 5a.50005.50005 0 1 0 0 1h2.5v2.5a.50005.50005 0 1 0 1 0v-3a.50005.50005 0 0 0 -.5-.5zm-5 5a.50005.50005 0 1 0 0 1h2.5v2.5a.50005.50005 0 1 0 1 0v-3a.50005.50005 0 0 0 -.5-.5z" opacity=".7" /></g></g></svg>