<svg xmlns="http://www.w3.org/2000/svg" xmlns:ns1="http://sodipodi.sourceforge.net/DTD/sodipodi-0.dtd" xmlns:ns2="http://www.inkscape.org/namespaces/inkscape" viewBox="0 0 1600 1600"><ns1:namedview pagecolor="#303030" showgrid="true"><ns2:grid id="grid5" units="px" spacingx="100" spacingy="100" color="#4772b3" opacity="0.2" visible="true" /></ns1:namedview><g fill="currentColor"><g enable-background="new" transform="matrix(100 0 0 100 -25700.293 -32499.414)"><path d="m258.49805 325.99414a.50005.50005 0 0 0 -.5.5v2a.50005.50005 0 0 0 .5.5h2a.50005.50005 0 0 0 .5-.5v-2a.50005.50005 0 0 0 -.5-.5zm11.00976 0a.50005.50005 0 0 0 -.5.5v2a.50005.50005 0 0 0 .5.5h2a.50005.50005 0 0 0 .5-.5v-2a.50005.50005 0 0 0 -.5-.5zm-10.50976 1h1v1h-1zm11.00976 0h1v1h-1zm-11.50976 10a.50005.50005 0 0 0 -.5.5v2a.50005.50005 0 0 0 .5.5h2a.50005.50005 0 0 0 .5-.5v-2a.50005.50005 0 0 0 -.5-.5zm11.00976 0a.50005.50005 0 0 0 -.5.5v2a.50005.50005 0 0 0 .5.5h2a.50005.50005 0 0 0 .5-.5v-2a.50005.50005 0 0 0 -.5-.5zm-10.50976 1h1v1h-1zm11.00976 0h1v1h-1z" opacity=".6" /><path d="m265 328c-2.75536 0-5 2.24449-5 5s2.24464 5 5 5 5-2.24449 5-5-2.24464-5-5-5zm0 1c2.21488 0 4 1.78488 4 4s-1.78512 4-4 4-4-1.78488-4-4 1.78512-4 4-4z" /></g></g></svg>