<svg xmlns="http://www.w3.org/2000/svg" xmlns:ns1="http://sodipodi.sourceforge.net/DTD/sodipodi-0.dtd" xmlns:ns2="http://www.inkscape.org/namespaces/inkscape" viewBox="0 0 1600 1600"><ns1:namedview pagecolor="#303030" showgrid="true"><ns2:grid id="grid5" units="px" spacingx="100" spacingy="100" color="#4772b3" opacity="0.2" visible="true" /></ns1:namedview><g fill="currentColor"><path d="m363.5 431a.50005.50005 0 0 0 -.5.5v1a.50005.50005 0 0 0 .14648.35352l4.85352 4.85351v3.79297a.50005.50005 0 0 0 .14648.35352l3 3a.50005.50005 0 0 0 .85352-.35352v-6.79297l4.85352-4.85351a.50005.50005 0 0 0 .14648-.35352v-1a.50005.50005 0 0 0 -.5-.5zm.5 1h12v.29297l-4.85352 4.85351a.50005.50005 0 0 0 -.14648.35352v5.79297l-2-2v-3.79297a.50005.50005 0 0 0 -.14648-.35352l-4.85352-4.85351z" transform="matrix(-100 0 0 100 37800.00000000001 -42999.9931)" /></g></svg>