<svg xmlns="http://www.w3.org/2000/svg" xmlns:ns1="http://sodipodi.sourceforge.net/DTD/sodipodi-0.dtd" xmlns:ns2="http://www.inkscape.org/namespaces/inkscape" viewBox="0 0 1600 1600"><ns1:namedview pagecolor="#303030" showgrid="true"><ns2:grid id="grid5" units="px" spacingx="100" spacingy="100" color="#4772b3" opacity="0.2" visible="true" /></ns1:namedview><g fill="currentColor"><path d="m418.85321 140.04954-2.82-2.82a.62.62 0 0 0 -.4-.18.6.6 0 0 0 -.6.6.62.62 0 0 0 .18.43l1 1-9.18 9.12-1-1a.62.62 0 0 0 -.4-.15.6.6 0 0 0 -.6.6.62.62 0 0 0 .18.4l2.82 2.82a.6.6 0 0 0 .82-.82l-1-1 9.18-9.15 1 1a.6.6 0 0 0 .82-.85z" opacity=".99" transform="matrix(100.59455 0 0 100.7946 -40643.576 -13714.423)" /></g></svg>