<svg xmlns="http://www.w3.org/2000/svg" xmlns:ns1="http://sodipodi.sourceforge.net/DTD/sodipodi-0.dtd" xmlns:ns2="http://www.inkscape.org/namespaces/inkscape" viewBox="0 0 1600 1600"><ns1:namedview pagecolor="#303030" showgrid="true"><ns2:grid id="grid5" units="px" spacingx="100" spacingy="100" color="#4772b3" opacity="0.2" visible="true" /></ns1:namedview><g fill="currentColor"><g enable-background="new" transform="matrix(100 0 0 100 -10998.828 -34598.242)"><path d="m121.47461 347a3.4883757 3.4883673 0 0 0 -3.48828 3.48828 3.4883757 3.4883673 0 0 0 3.48828 3.48828 3.4883757 3.4883673 0 0 0 3.48828-3.48828 3.4883757 3.4883673 0 0 0 -3.48828-3.48828zm-2.48047 3h5.00586v1.01367h-5.00586z" opacity=".6" /><path d="m114.49609 354a3.4824922 3.4824822 0 0 0 -3.48242 3.48242 3.4824922 3.4824822 0 0 0 3.48242 3.48242 3.4824922 3.4824822 0 0 0 3.48243-3.48242 3.4824922 3.4824822 0 0 0 -3.48243-3.48242zm-.50586.98633h1.01368v1.98633h1.99609v1.01367h-1.99609v1.98633h-1.01368v-1.98633h-1.99609v-1.01367h1.99609z" /></g></g></svg>