<svg xmlns="http://www.w3.org/2000/svg" xmlns:ns1="http://sodipodi.sourceforge.net/DTD/sodipodi-0.dtd" xmlns:ns2="http://www.inkscape.org/namespaces/inkscape" viewBox="0 0 1500 1100"><ns1:namedview pagecolor="#303030" showgrid="true"><ns2:grid id="grid5" units="px" spacingx="100" spacingy="100" color="#4772b3" opacity="0.2" visible="true" /></ns1:namedview><g fill="currentColor"><path d="m432.49961 433c-3.27784-.00094-5.036 2.7211-6.36328 4.16211-.17644.19146-.17644.48627 0 .67773 1.3275 1.44124 3.08593 4.15993 6.36328 4.16211 3.27801.002 5.03608-2.72118 6.36328-4.16211.17644-.19146.17644-.48627 0-.67773-1.32741-1.44115-3.08573-4.16117-6.36328-4.16211zm0 1a3.4999952 3.4999933 0 0 1 3.5 3.5 3.4999952 3.4999933 0 0 1 -3.5 3.5 3.4999952 3.4999933 0 0 1 -3.5-3.5 3.4999952 3.4999933 0 0 1 3.5-3.5zm0 2a1.4999952 1.4999944 0 0 0 -1.5 1.5 1.4999952 1.4999944 0 0 0 1.5 1.5 1.4999952 1.4999944 0 0 0 1.5-1.5 1.4999952 1.4999944 0 0 0 -1.5-1.5z" transform="matrix(100 0 0 100 -42499.961 -43200.0975)" /></g></svg>