<svg xmlns="http://www.w3.org/2000/svg" xmlns:ns1="http://sodipodi.sourceforge.net/DTD/sodipodi-0.dtd" xmlns:ns2="http://www.inkscape.org/namespaces/inkscape" viewBox="0 0 1600 1600"><ns1:namedview pagecolor="#303030" showgrid="true"><ns2:grid id="grid5" units="px" spacingx="100" spacingy="100" color="#4772b3" opacity="0.2" visible="true" /></ns1:namedview><g fill="currentColor"><path d="m495.98438 95c-.25978.004-.50774.10921-.69141.29297l-6 6c-.20558.20572-.2948.45907-.29297.70703v.5c.00003.27613.22387.49997.5.5h.5v5.5c.00003.27613.22387.49997.5.5h3.5v-5.5c.00003-.27613.22387-.49997.5-.5h3c.27613.00003.49997.22387.5.5v5.5h3.5c.27613-.00003.49997-.22387.5-.5v-5.5h.5c.27613-.00003.49997-.22387.5-.5v-.5c.004-.25043-.0852-.49916-.29297-.70703l-6-6c-.19132-.19141-.45207-.29711-.72265-.29297z" transform="matrix(100 0 0 100 -48800.005 -9399.994)" /></g></svg>