<svg xmlns="http://www.w3.org/2000/svg" xmlns:ns1="http://sodipodi.sourceforge.net/DTD/sodipodi-0.dtd" xmlns:ns2="http://www.inkscape.org/namespaces/inkscape" viewBox="0 0 1200 1400"><ns1:namedview pagecolor="#303030" showgrid="true"><ns2:grid id="grid5" units="px" spacingx="100" spacingy="100" color="#4772b3" opacity="0.2" visible="true" /></ns1:namedview><g fill="currentColor"><path d="m200.47572 306.03125c-.67616-.01-.67616 1.00956 0 1h2.5039l-.002.14258-2.92604 9.4082c-.0291.0671-.0431.13978-.041.21289l.006.23633h-2.50781c-.67616-.01-.67616 1.00956 0 1h6c.67616.01.67616-1.00956 0-1h-2.4923c.00006-.005.00006-.009 0-.0137l-.004-.13867 2.92214-9.39844c.0261-.0605.0401-.12553.041-.19141l.004-.25778h2.4961c.67616.01.67616-1.00956 0-1z" transform="matrix(100 0 0 100 -19599.224 -30503.125)" /></g></svg>