<svg xmlns="http://www.w3.org/2000/svg" xmlns:ns1="http://sodipodi.sourceforge.net/DTD/sodipodi-0.dtd" xmlns:ns2="http://www.inkscape.org/namespaces/inkscape" viewBox="0 0 1600 1500"><ns1:namedview pagecolor="#303030" showgrid="true"><ns2:grid id="grid5" units="px" spacingx="100" spacingy="100" color="#4772b3" opacity="0.2" visible="true" /></ns1:namedview><g fill="currentColor"><path d="m111.51563 74c-.27614.000028-.49998.223869-.5.5v12c.00002.276131.22386.499972.5.5h2.98437c.27613-.000028.49997-.223869.5-.5v-12c-.00003-.276131-.22387-.499972-.5-.5zm.5 1h1.98437v2h-1.98437zm0 3h1.98437v2h-1.98437zm0 3h1.98437v2h-1.98437zm0 3h1.98437v2h-1.98437zm11.98437-2.999995h1v1h-1zm-2 0h1v1h-1zm-2 0h1v1h-1zm-2 0h1v1h-1zm-2 0h1v1h-1zm8-3h1v1h-1zm-2 0h1v1h-1zm-2 0h1v1h-1zm-2 0h1v1h-1zm-2 0h1v1h-1zm8-3h1v1h-1zm-2 0h1v1h-1zm-2 0h1v1h-1zm-2 0h1v1h-1zm-2 0h1v1h-1z" transform="matrix(100 0 0 100 -11000.7815 -7300)" /></g></svg>