<svg xmlns="http://www.w3.org/2000/svg" xmlns:ns1="http://sodipodi.sourceforge.net/DTD/sodipodi-0.dtd" xmlns:ns2="http://www.inkscape.org/namespaces/inkscape" viewBox="0 0 1600 1600"><ns1:namedview pagecolor="#303030" showgrid="true"><ns2:grid id="grid5" units="px" spacingx="100" spacingy="100" color="#4772b3" opacity="0.2" visible="true" /></ns1:namedview><g fill="currentColor"><g enable-background="new" fill-rule="evenodd" transform="matrix(-100 0 0 100 138200.195 -33299.707)"><path d="m1367.5039 334.00195a.50004997.50004997 0 0 0 -.5.5v9.99219a.50004997.50004997 0 0 0 .5.5h9.9961a.50004997.50004997 0 0 0 .5-.5v-9.99219a.50004997.50004997 0 0 0 -.5-.5zm.5 1h8.9961v8.99219h-8.9961z" /><path d="m1376 338-4.4961.002a.50004997.50004997 0 0 0 -.5.5v4.498h1v-3.99805l3.9961-.00195zm3 0v1l1 .002v7.99024h-7.9961v-.99224h-1v1.49219a.50004997.50004997 0 0 0 .5.5h8.9961a.50004997.50004997 0 0 0 .5-.5v-8.99024a.50004997.50004997 0 0 0 -.5-.5z" opacity=".7" /></g></g></svg>