<svg xmlns="http://www.w3.org/2000/svg" xmlns:ns1="http://sodipodi.sourceforge.net/DTD/sodipodi-0.dtd" xmlns:ns2="http://www.inkscape.org/namespaces/inkscape" viewBox="0 0 1600 1600"><ns1:namedview pagecolor="#303030" showgrid="true"><ns2:grid id="grid5" units="px" spacingx="100" spacingy="100" color="#4772b3" opacity="0.2" visible="true" /></ns1:namedview><g fill="currentColor"><g enable-background="new" transform="matrix(100 0 0 100 -44600 -24100)"><path d="m447.5 263a.50005.50005 0 0 0 -.5.5v2a.50005.50005 0 0 0 .5.5h.5v8h-.5a.50005.50005 0 0 0 -.5.5v2a.50005.50005 0 0 0 .5.5h2a.50005.50005 0 0 0 .5-.5v-.5h8v.5a.50005.50005 0 0 0 .5.5h2a.50005.50005 0 0 0 .5-.5v-2a.50005.50005 0 0 0 -.5-.5h-.5v-8h.5a.50005.50005 0 0 0 .5-.5v-2a.50005.50005 0 0 0 -.5-.5h-2a.50005.50005 0 0 0 -.5.5v.5h-8v-.5a.50005.50005 0 0 0 -.5-.5zm.5 1h1v1h-1zm11 0h1v1h-1zm-9 1h8v.5a.50005.50005 0 0 0 .5.5h.5v8h-.5a.50005.50005 0 0 0 -.5.5v.5h-8v-.5a.50005.50005 0 0 0 -.5-.5h-.5v-8h.5a.50005.50005 0 0 0 .5-.5zm-2 10h1v1h-1zm11 0h1v1h-1z" fill-rule="evenodd" opacity=".6" transform="translate(0 -21)" /><path d="m451.5 246a.50005.50005 0 0 0 -.5.5v5a.50005.50005 0 0 0 .5.5h5a.50005.50005 0 0 0 .5-.5v-5a.50005.50005 0 0 0 -.5-.5zm.5 1h4v4h-4z" /></g></g></svg>