<svg xmlns="http://www.w3.org/2000/svg" xmlns:ns1="http://sodipodi.sourceforge.net/DTD/sodipodi-0.dtd" xmlns:ns2="http://www.inkscape.org/namespaces/inkscape" viewBox="0 0 1700 1200"><ns1:namedview pagecolor="#303030" showgrid="true"><ns2:grid id="grid5" units="px" spacingx="100" spacingy="100" color="#4772b3" opacity="0.2" visible="true" /></ns1:namedview><g fill="currentColor"><path d="m132.5104 224c-.27994-.01-.50979.22-.50977.5v7c-.001.4307.5065.6613.83008.377l4-3.5c.22872-.1993.22872-.5547 0-.754l-4-3.5c-.0889-.078-.20238-.1211-.32031-.123zm9.96289-1c-.13302.01-.25746.068-.34571.168l-4 4.5c-.16816.1894-.16816.4746 0 .664l4 4.5c.19883.2227.54727.2227.7461 0l4-4.5c.16816-.1894.16816-.4746 0-.664l-4-4.5c-.10092-.114-.24831-.1759-.40039-.168z" fill-rule="evenodd" transform="matrix(100 0 0 100 -13100.021 -22199.918)" /></g></svg>