<svg xmlns="http://www.w3.org/2000/svg" xmlns:ns1="http://sodipodi.sourceforge.net/DTD/sodipodi-0.dtd" xmlns:ns2="http://www.inkscape.org/namespaces/inkscape" viewBox="0 0 1600 1600"><ns1:namedview pagecolor="#303030" showgrid="true"><ns2:grid id="grid5" units="px" spacingx="100" spacingy="100" color="#4772b3" opacity="0.2" visible="true" /></ns1:namedview><g fill="currentColor"><g enable-background="new" transform="matrix(100 0 0 100 -25700 -53500)"><g opacity=".6" transform="matrix(1 0 0 -1 -42 918)"><path d="m300.5 375a.50005.50005 0 0 0 -.5.5v3a.50005.50005 0 0 0 .5.5h5.5v-1h-5v-2h5v-1zm8.5 0v1h2v2h-2v1h2.5a.50005.50005 0 0 0 .5-.5v-3a.50005.50005 0 0 0 -.5-.5z" opacity="1" /><path d="m302.5 378a.50005.50005 0 0 0 -.5.5v3a.50005.50005 0 0 0 .5.5h3.5v-1h-3v-2h3v-1zm6.5 0v1h4v2h-4v1h4.5a.50005.50005 0 0 0 .5-.5v-3a.50005.50005 0 0 0 -.5-.5z" opacity="1" /></g><path d="m265 536v13.96484h1v-13.96484zm-4.5 10c-.27613.00003-.49997.22387-.5.5v3c.00003.27613.22387.49997.5.5h3.5v-4zm6.5 0v4h4.5c.27613-.00003.49997-.22387.5-.5v-3c-.00003-.27613-.22387-.49997-.5-.5z" /></g></g></svg>