<svg xmlns="http://www.w3.org/2000/svg" xmlns:ns1="http://sodipodi.sourceforge.net/DTD/sodipodi-0.dtd" xmlns:ns2="http://www.inkscape.org/namespaces/inkscape" viewBox="0 0 1600 1600"><ns1:namedview pagecolor="#303030" showgrid="true"><ns2:grid id="grid5" units="px" spacingx="100" spacingy="100" color="#4772b3" opacity="0.2" visible="true" /></ns1:namedview><g fill="currentColor"><g enable-background="new" transform="matrix(100 0 0 100 -8900 -17800)"><g opacity=".6" transform="matrix(1 0 0 -1 -210 568)"><path d="m300.5 375a.50005.50005 0 0 0 -.5.5v3a.50005.50005 0 0 0 .5.5h10a.50005.50005 0 0 0 .5-.5v-3a.50005.50005 0 0 0 -.5-.5zm.5 1h9v2h-9z" opacity="1" /><path d="m304.5 378a.50005.50005 0 0 0 -.5.5v3a.50005.50005 0 0 0 .5.5h9a.50005.50005 0 0 0 .5-.5v-3a.50005.50005 0 0 0 -.5-.5zm.5 1h8v2h-8z" opacity="1" /></g><path d="m93.5 179c-.412872-.00072-.648693.47092-.400391.80078l3 4c.2.26732.600782.26732.800782 0l3-4c.248299-.32986.012481-.8015-.400391-.80078z" fill-rule="evenodd" /></g></g></svg>