<svg xmlns="http://www.w3.org/2000/svg" xmlns:ns1="http://sodipodi.sourceforge.net/DTD/sodipodi-0.dtd" xmlns:ns2="http://www.inkscape.org/namespaces/inkscape" id="svg5" viewBox="0 0 1600 1600"><ns1:namedview pagecolor="#303030" showgrid="true"><ns2:grid id="grid5" units="px" spacingx="100" spacingy="100" color="#4772b3" opacity="0.2" visible="true" /></ns1:namedview><g transform="matrix(100 0 0 100 -79399.976 -28300)" fill="currentColor"><path id="path2" d="m797 284c-1.09935 0-2 .90065-2 2v2 8c0 1.09935.90065 2 2 2h7c1.09935 0 2-.90065 2-2v-.5c.01-.67616-1.00956-.67616-1 0v.5c0 .56265-.43735 1-1 1h-7c-.56265 0-1-.43735-1-1v-8h10v-2c0-1.09935-.90065-2-2-2z" /><path id="path3" d="m806.5 294c-1.37479 0-2.5-1.12521-2.5-2.5s1.12521-2.5 2.5-2.5 2.5 1.12521 2.5 2.5-1.12521 2.5-2.5 2.5z" opacity=".6" /></g></svg>