<svg xmlns="http://www.w3.org/2000/svg" xmlns:ns1="http://sodipodi.sourceforge.net/DTD/sodipodi-0.dtd" xmlns:ns2="http://www.inkscape.org/namespaces/inkscape" viewBox="0 0 1600 1600"><ns1:namedview pagecolor="#303030" showgrid="true"><ns2:grid id="grid5" units="px" spacingx="100" spacingy="100" color="#4772b3" opacity="0.2" visible="true" /></ns1:namedview><g fill="currentColor"><path d="m258.99609 451.98828a1.0001 1.0001 0 0 0 -.82031 1.56641l1.63086 2.44531-1.63086 2.44531a1.0001 1.0001 0 0 0 0 1.10938l1.63086 2.44531-1.63086 2.44531a1.0001 1.0001 0 1 0 1.66406 1.10938l2-3a1.0001 1.0001 0 0 0 0-1.10938l-1.63086-2.44531 1.63086-2.44531a1.0001 1.0001 0 0 0 0-1.10938l-2-3a1.0001 1.0001 0 0 0 -.84375-.45703zm5 0a1.0001 1.0001 0 0 0 -.82031 1.56641l1.63086 2.44531-1.63086 2.44531a1.0001 1.0001 0 0 0 0 1.10938l1.63086 2.44531-1.63086 2.44531a1.0001 1.0001 0 1 0 1.66406 1.10938l2-3a1.0001 1.0001 0 0 0 0-1.10938l-1.63086-2.44531 1.63086-2.44531a1.0001 1.0001 0 0 0 0-1.10938l-2-3a1.0001 1.0001 0 0 0 -.84375-.45703zm5 0a1.0001 1.0001 0 0 0 -.82031 1.56641l1.63086 2.44531-1.63086 2.44531a1.0001 1.0001 0 0 0 0 1.10938l1.63086 2.44531-1.63086 2.44531a1.0001 1.0001 0 1 0 1.66406 1.10938l2-3a1.0001 1.0001 0 0 0 0-1.10938l-1.63086-2.44531 1.63086-2.44531a1.0001 1.0001 0 0 0 0-1.10938l-2-3a1.0001 1.0001 0 0 0 -.84375-.45703z" transform="matrix(100 0 0 100 -25700.339 -45100.069)" /></g></svg>