<svg xmlns="http://www.w3.org/2000/svg" xmlns:ns1="http://sodipodi.sourceforge.net/DTD/sodipodi-0.dtd" xmlns:ns2="http://www.inkscape.org/namespaces/inkscape" viewBox="0 0 1600 1600"><ns1:namedview pagecolor="#303030" showgrid="true"><ns2:grid id="grid5" units="px" spacingx="100" spacingy="100" color="#4772b3" opacity="0.2" visible="true" /></ns1:namedview><g fill="currentColor"><path d="m240.51382 409.98613a.50005.50005 0 0 0 -.3594.1524l-3 3a.50005.50005 0 1 0 .707.707l3-3a.50005.50005 0 0 0 -.3476-.8594zm5 0a.50005.50005 0 0 0 -.3594.1524l-8 8a.50005.50005 0 1 0 .707.707l8-8a.50005.50005 0 0 0 -.3476-.8594zm5 0a.50005.50005 0 0 0 -.3594.1524l-4.416 4.416c.2729.1952.5118.4341.707.707l4.416-4.416a.50005.50005 0 0 0 -.3476-.8594zm0 5a.50005.50005 0 0 0 -.3594.1524l-8 8a.50005.50005 0 1 0 .707.707l8-8a.50005.50005 0 0 0 -.3476-.8594zm-6.5059 1.0059a1.0000001 1 0 0 0 -1 1 1.0000001 1 0 0 0 1 1 1.0000001 1 0 0 0 1-1 1.0000001 1 0 0 0 -1-1zm-2.4375 2.7305-4.416 4.416a.50005.50005 0 1 0 .707.707l4.416-4.416c-.2729-.1952-.5118-.4341-.707-.707zm8.9434 1.2636a.50005.50005 0 0 0 -.3594.1524l-3 3a.50005.50005 0 1 0 .707.707l3-3a.50005.50005 0 0 0 -.3476-.8594z" transform="matrix(100 0 0 100 -23600.684 -40899.3066)" /></g></svg>