<svg xmlns="http://www.w3.org/2000/svg" xmlns:ns1="http://sodipodi.sourceforge.net/DTD/sodipodi-0.dtd" xmlns:ns2="http://www.inkscape.org/namespaces/inkscape" viewBox="0 0 1600 1500"><ns1:namedview pagecolor="#303030" showgrid="true"><ns2:grid id="grid5" units="px" spacingx="100" spacingy="100" color="#4772b3" opacity="0.2" visible="true" /></ns1:namedview><g fill="currentColor"><path d="m-76.5 394-3.751953.006c-.228491.001-.427071.15722-.482422.37891l-1.25 4.99414c-.07853.31517.159565.6204.484375.62095h3.75c.22922-.00036.428845-.15652.484375-.37891l1.25-5c.078641-.31522-.159491-.62057-.484375-.62109zm6 0-3.751953.006c-.228491.001-.427071.15722-.482422.37891l-1.25 4.99414c-.07853.31517.159565.6204.484375.62095h3.75c.22922-.00036.428845-.15652.484375-.37891l1.25-5c.078641-.31522-.159491-.62057-.484375-.62109zm-8 7-3.751953.006c-.228491.001-.427071.15722-.482422.37891l-1.25 4.99414c-.07853.31517.159565.6204.484375.62095h3.75c.22922-.00036.428845-.15652.484375-.37891l1.25-5c.078641-.31522-.159491-.62057-.484375-.62109zm6 0-3.751953.006c-.228491.001-.427071.15722-.482422.37891l-1.25 4.99414c-.07853.31517.159565.6204.484375.62095h3.75c.22922-.00036.428845-.15652.484375-.37891l1.25-5c.078641-.31522-.159491-.62057-.484375-.62109z" transform="matrix(100 0 0 100 8499.998 -39300)" /></g></svg>