<svg xmlns="http://www.w3.org/2000/svg" xmlns:ns1="http://sodipodi.sourceforge.net/DTD/sodipodi-0.dtd" xmlns:ns2="http://www.inkscape.org/namespaces/inkscape" viewBox="0 0 1400 1400"><ns1:namedview pagecolor="#303030" showgrid="true"><ns2:grid id="grid5" units="px" spacingx="100" spacingy="100" color="#4772b3" opacity="0.2" visible="true" /></ns1:namedview><g fill="currentColor"><g enable-background="new" fill-rule="evenodd" transform="matrix(100 0 0 100 -4796.875 -15800)"><path d="m49.46875 159a.50005.50005 0 0 0 -.5.5v11a.50005.50005 0 0 0 .5.5h11a.50005.50005 0 0 0 .5-.5v-11a.50005.50005 0 0 0 -.5-.5zm.5 1h10v10h-10z" opacity=".6" /><path d="m53.5 163c-.276131.00003-.499972.22387-.5.5v3c.000028.27613.223869.49997.5.5h3c.276131-.00003.499972-.22387.5-.5v-3c-.000028-.27613-.223869-.49997-.5-.5z" /></g></g></svg>