<svg xmlns="http://www.w3.org/2000/svg" xmlns:ns1="http://sodipodi.sourceforge.net/DTD/sodipodi-0.dtd" xmlns:ns2="http://www.inkscape.org/namespaces/inkscape" viewBox="0 0 1600 1600"><ns1:namedview pagecolor="#303030" showgrid="true"><ns2:grid id="grid5" units="px" spacingx="100" spacingy="100" color="#4772b3" opacity="0.2" visible="true" /></ns1:namedview><g fill="currentColor"><g enable-background="new" transform="matrix(100 0 0 100 -38300 -15700)"><path d="m384.5 158c-.27613.00003-.49997.22387-.5.5v3c.00003.27613.22387.49997.5.5h13c.27613-.00003.49997-.22387.5-.5v-3c-.00003-.27613-.22387-.49997-.5-.5zm.5 1h12v2h-12zm-.5 9c-.27613.00003-.49997.22387-.5.5v3c.00003.27613.22387.49997.5.5h13c.27613-.00003.49997-.22387.5-.5v-3c-.00003-.27613-.22387-.49997-.5-.5zm.5 1h12v2h-12z" opacity=".6" /><path d="m393.00001 165a2.000005 2.000005 0 0 1 -2.00001 2.00001 2.000005 2.000005 0 0 1 -2.00001-2.00001 2.000005 2.000005 0 0 1 2.00001-2.00001 2.000005 2.000005 0 0 1 2.00001 2.00001z" /></g></g></svg>