<svg xmlns="http://www.w3.org/2000/svg" xmlns:ns1="http://sodipodi.sourceforge.net/DTD/sodipodi-0.dtd" xmlns:ns2="http://www.inkscape.org/namespaces/inkscape" viewBox="0 0 1400 1400"><ns1:namedview pagecolor="#303030" showgrid="true"><ns2:grid id="grid5" units="px" spacingx="100" spacingy="100" color="#4772b3" opacity="0.2" visible="true" /></ns1:namedview><g fill="currentColor"><path d="m412.5-364c-.27613.00003-.49997.22387-.5.5v11c.00003.27613.22387.49997.5.5h2c.27613-.00003.49997-.22387.5-.5v-11c-.00003-.27613-.22387-.49997-.5-.5zm9 0c-.27613.00003-.49997.22387-.5.5v11c.00003.27613.22387.49997.5.5h2c.27613-.00003.49997-.22387.5-.5v-11c-.00003-.27613-.22387-.49997-.5-.5z" transform="matrix(0 100 -100 0 -35100 -41100)" /></g></svg>