<svg xmlns="http://www.w3.org/2000/svg" xmlns:ns1="http://sodipodi.sourceforge.net/DTD/sodipodi-0.dtd" xmlns:ns2="http://www.inkscape.org/namespaces/inkscape" id="svg6" viewBox="0 0 1600 1600"><ns1:namedview pagecolor="#303030" showgrid="true"><ns2:grid id="grid5" units="px" spacingx="100" spacingy="100" color="#4772b3" opacity="0.2" visible="true" /></ns1:namedview><g fill="currentColor"><path id="circle1" d="m449 123a1 1 0 0 1 -1 1 1 1 0 0 1 -1-1 1 1 0 0 1 1-1 1 1 0 0 1 1 1z" transform="matrix(100 0 0 100 -44600 -11500)" /><path id="circle2" d="m449.80383 120a1 1 0 0 1 -1 1 1 1 0 0 1 -1-1 1 1 0 0 1 1-1 1 1 0 0 1 1 1z" transform="matrix(100 0 0 100 -44600 -11500)" /><path id="circle3" d="m452 117.80385a1 1 0 0 1 -1 1 1 1 0 0 1 -1-1 1 1 0 0 1 1-1 1 1 0 0 1 1 1z" transform="matrix(100 0 0 100 -44600 -11500)" /><path id="circle4" d="m449.80383-126a1 1 0 0 1 -1 1 1 1 0 0 1 -1-1 1 1 0 0 1 1-1 1 1 0 0 1 1 1z" transform="matrix(100 0 0 -100 -44600 -11500)" /><path id="circle5" d="m452-128.19615a1 1 0 0 1 -1 1 1 1 0 0 1 -1-1 1 1 0 0 1 1-1 1 1 0 0 1 1 1z" transform="matrix(100 0 0 -100 -44600 -11500)" /><path id="path1" d="m454 116a1 1 0 0 0 -1 1 1 1 0 0 0 1 1c2.77327 0 5 2.22673 5 5s-2.22673 5-5 5a1 1 0 0 0 -1 1 1 1 0 0 0 1 1c3.85414 0 7-3.14586 7-7s-3.14586-7-7-7z" stroke-linecap="round" stroke-linejoin="round" transform="matrix(100 0 0 100 -44600 -11500)" /></g><path id="path5" d="m456.5 123.5-3-.00004v-2.99996" opacity=".99" stroke="#fff" stroke-linecap="round" transform="matrix(100 0 0 100 -44600 -11500)" fill="currentColor" /></svg>