<svg xmlns="http://www.w3.org/2000/svg" xmlns:ns1="http://sodipodi.sourceforge.net/DTD/sodipodi-0.dtd" xmlns:ns2="http://www.inkscape.org/namespaces/inkscape" viewBox="0 0 1600 1300"><ns1:namedview pagecolor="#303030" showgrid="true"><ns2:grid id="grid5" units="px" spacingx="100" spacingy="100" color="#4772b3" opacity="0.2" visible="true" /></ns1:namedview><g fill="currentColor"><path d="m303.5 600c-1.92707 0-3.5 1.57293-3.5 3.5v.5h1v-.5c0-1.38663 1.11337-2.5 2.5-2.5s2.5 1.11337 2.5 2.5v1.5h-.5a.50005.50005 0 0 0 -.5.5v5a.50005.50005 0 0 0 .5.5h8a.50005.50005 0 0 0 .5-.5v-5a.50005.50005 0 0 0 -.5-.5h-6.5v-1.5c0-1.92707-1.57293-3.5-3.5-3.5zm2.5 6h7v4h-7zm3 1v2h1v-2z" opacity=".6" transform="matrix(100 0 0 100 -29900 -59900)" /></g></svg>