<svg xmlns="http://www.w3.org/2000/svg" xmlns:ns1="http://sodipodi.sourceforge.net/DTD/sodipodi-0.dtd" xmlns:ns2="http://www.inkscape.org/namespaces/inkscape" viewBox="0 0 1600 1600"><ns1:namedview pagecolor="#303030" showgrid="true"><ns2:grid id="grid5" units="px" spacingx="100" spacingy="100" color="#4772b3" opacity="0.2" visible="true" /></ns1:namedview><g fill="currentColor"><g enable-background="new" transform="matrix(100 0 0 100 -15100.212 -13601.61)"><path d="m155.50195 139.99414a.50005.50005 0 0 0 -.36133.85352c1.23267 1.27471 2.63438 3.15234 5.35938 3.15234s4.12681-1.87774 5.35938-3.15234a.50005.50005 0 1 0 -.71876-.69532c-1.30585 1.3504-2.36562 2.84766-4.64062 2.84766s-3.33487-1.49737-4.64062-2.84766a.50005.50005 0 0 0 -.35743-.1582z" opacity=".6" /><path d="m152.50195 143a.50005.50005 0 0 0 -.46093.69727l3 7a.50005.50005 0 1 0 .91796-.39454l-2.50781-5.85156 5.85156 2.50781a.50005.50005 0 1 0 .39454-.91796l-7-3a.50005.50005 0 0 0 -.19532-.04102z" opacity=".6" /></g></g></svg>