<svg xmlns="http://www.w3.org/2000/svg" xmlns:ns1="http://sodipodi.sourceforge.net/DTD/sodipodi-0.dtd" xmlns:ns2="http://www.inkscape.org/namespaces/inkscape" viewBox="0 0 1600 1600"><ns1:namedview pagecolor="#303030" showgrid="true"><ns2:grid id="grid5" units="px" spacingx="100" spacingy="100" color="#4772b3" opacity="0.2" visible="true" /></ns1:namedview><g fill="currentColor"><g enable-background="new" transform="matrix(100 0 0 100 -54599.99999999999 -64900)"><path d="m548 653c-.54532 0-1 .45468-1 1v9c0 .54532.45468 1 1 1h10c.54532 0 1-.45468 1-1v-1h-1v1h-10v-4-5z" opacity=".6" /><path d="m550 650c-.54532 0-1 .45468-1 1v9c0 .54532.45468 1 1 1h10c.54532 0 1-.45468 1-1v-9c0-.54532-.45468-1-1-1zm0 1h2v2h-2zm0 3h10v6h-10z" /></g></g></svg>